<?xml version="1.0" encoding="utf-8"?>
<!-- Generator: Adobe Illustrator 15.1.0, SVG Export Plug-In . SVG Version: 6.00 Build 0)  -->
<!DOCTYPE svg PUBLIC "-//W3C//DTD SVG 1.1//EN" "http://www.w3.org/Graphics/SVG/1.1/DTD/svg11.dtd">
<svg version="1.1" id="Layer_1" xmlns="http://www.w3.org/2000/svg" xmlns:xlink="http://www.w3.org/1999/xlink" x="0px" y="0px"
	 width="75.896px" height="75.894px" viewBox="0 0 75.896 75.894" enable-background="new 0 0 75.896 75.894" xml:space="preserve">
<path fill="#FFFFFF" d="M0,37.951c0,20.922,17.024,37.942,37.948,37.942s37.948-17.021,37.948-37.942
	C75.896,17.025,58.872,0,37.948,0S0,17.025,0,37.951z M2.053,37.951c0-19.796,16.103-35.898,35.895-35.898
	c19.792,0,35.895,16.103,35.895,35.898c0,19.791-16.102,35.89-35.895,35.89C18.156,73.841,2.053,57.742,2.053,37.951z
	 M72.771,70.594c0-0.907-0.561-1.172-1.619-1.172h-1.436v3.72h0.881v-1.484h0.35l0.751,1.484h0.941l-0.827-1.536
	C72.361,71.575,72.771,71.309,72.771,70.594z M71.313,70.956h-0.715v-0.833h0.521c0.287,0,0.715,0.018,0.715,0.372
	C71.834,70.866,71.649,70.956,71.313,70.956z M71.169,67.611c-1.999,0-3.622,1.622-3.622,3.617c0,1.997,1.623,3.619,3.622,3.619
	c1.993,0,3.615-1.622,3.615-3.619C74.784,69.233,73.162,67.611,71.169,67.611z M71.169,74.229c-1.653,0-2.869-1.17-2.869-3.001
	c0-1.829,1.216-2.999,2.869-2.999c1.643,0,2.864,1.17,2.864,2.999C74.033,73.06,72.812,74.229,71.169,74.229z M58.89,23.856
	c0.946-2.681,2.96-4.022,4.587-4.022c1.452,0,2.179,1.056,1.783,2.167c-0.21,0.613-0.741,1.058-1.298,1.058
	c-0.364,0-0.455-0.094-0.529-0.637c-0.072-0.521-0.3-0.661-0.727-0.661c-0.621,0-1.376,0.747-1.849,2.096
	c-0.435,1.251-0.345,2.108,0.477,2.108c0.356,0,0.581-0.13,1.218-0.819c0.301-0.328,0.605-0.509,0.896-0.509
	c0.507,0,0.755,0.441,0.535,1.08c-0.469,1.342-2.223,2.163-3.319,2.163C59.015,27.88,57.919,26.646,58.89,23.856z M57.338,19.88
	c0.611,0,0.807,0.499,0.521,1.32l-1.857,5.315c-0.287,0.821-0.841,1.322-1.442,1.322c-0.607,0-0.807-0.501-0.517-1.322l1.859-5.315
	C56.186,20.379,56.731,19.88,57.338,19.88z M48.318,21.01c0.212-0.585,0.601-0.993,1.222-0.993h4.202
	c0.625,0,0.726,0.408,0.521,0.993c-0.204,0.589-0.591,0.991-1.152,0.991H51.93l-1.577,4.515c-0.292,0.821-0.841,1.322-1.442,1.322
	c-0.613,0-0.813-0.501-0.521-1.322l1.57-4.515h-1.182C48.23,22.001,48.118,21.599,48.318,21.01z M38.864,26.604l1.903-5.455
	c0.296-0.829,0.847-1.315,1.588-1.315c0.471,0,0.741,0.227,0.811,0.751l0.437,3.688h0.008l1.128-3.207
	c0.246-0.719,0.787-1.231,1.382-1.231c0.601,0,0.775,0.513,0.531,1.231l-1.983,5.643c-0.291,0.842-0.885,1.172-1.518,1.172
	c-0.515,0-0.735-0.178-0.83-0.959l-0.473-3.35h-0.014l-1.062,3.033c-0.286,0.817-0.787,1.275-1.396,1.275
	C38.76,27.88,38.579,27.422,38.864,26.604z M36.8,19.88H36.18c-0.489,0-0.865,0.354-1.282,0.989l-2.892,4.549
	c-0.327,0.511-0.687,1.08-0.808,1.433c-0.206,0.571,0.106,0.987,0.547,0.987c0.309,0,0.75-0.168,1.01-0.606l0.333-0.565h2.063
	l-0.06,0.565c-0.052,0.438,0.274,0.606,0.581,0.606c0.444,0,1.045-0.416,1.246-0.987c0.121-0.353,0.156-0.922,0.19-1.433l0.28-4.549
	C37.428,20.234,37.293,19.88,36.8,19.88z M35.33,25.132h-1.348l1.648-2.811h0.014L35.33,25.132z M28.644,19.88
	c0.611,0,0.805,0.499,0.525,1.32l-1.586,4.517h2.063c0.501,0,0.721,0.36,0.497,0.991c-0.227,0.629-0.693,0.994-1.194,0.994h-2.905
	c-0.755,0-0.961-0.441-0.601-1.467l1.758-5.035C27.486,20.379,28.043,19.88,28.644,19.88z M19.606,21.01
	c0.204-0.585,0.589-0.993,1.222-0.993h4.194c0.617,0,0.727,0.408,0.521,0.993c-0.205,0.589-0.589,0.991-1.15,0.991h-1.188
	l-1.572,4.515c-0.291,0.821-0.841,1.322-1.446,1.322c-0.607,0-0.807-0.501-0.517-1.322l1.578-4.515h-1.188
	C19.5,22.001,19.4,21.599,19.606,21.01z M15.264,18.876c-0.008,0.009-0.016,0.019-0.022,0.026c-0.002,0.002-0.006,0.002-0.008,0.004
	L15.264,18.876z M65.376,29.685H41.414h-0.387H17.006V19.64c0.03-0.293-0.07-0.583-0.276-0.793
	c-0.008-0.013-0.305-0.215-0.305-0.215c-0.02-0.01-0.42-0.094-0.42-0.094c-0.292,0-0.569,0.136-0.763,0.364
	c-2.626,2.558-4.641,5.57-5.977,8.954c0,0.006-0.461,1.241-0.461,1.241c-0.066,0.194-0.126,0.393-0.187,0.587H7.922
	c-0.671,0-1.222,0.449-1.222,1c0,0.562,0.541,1.008,1.222,1.008h0.167c-0.417,1.872-0.633,3.781-0.633,5.712
	c0,4.076,0.921,7.982,2.74,11.614c0.245,0.486,0.852,0.691,1.346,0.45c0.356-0.186,0.557-0.544,0.557-0.909
	c0-0.15-0.036-0.303-0.104-0.446c-1.679-3.339-2.53-6.942-2.53-10.709c0-1.94,0.234-3.854,0.691-5.712h4.848
	c0,9.4,0,22.283,0,22.283c0,0.558,0.451,1.008,1.001,1.008c0.557,0,1.001-0.45,1.001-1.008V31.692h24.407h23.962
	c0.686,0,1.222-0.445,1.222-1.008C66.598,30.134,66.051,29.685,65.376,29.685z M15.003,29.685h-4.267
	c0.036-0.105,0.07-0.216,0.11-0.324c0,0,0.451-1.17,0.471-1.214c0.912-2.171,2.16-4.177,3.686-6.005
	C15.003,22.729,15.003,25.734,15.003,29.685z"/>
</svg>
